<svg width="244" height="30" viewBox="0 0 244 30" fill="none" xmlns="http://www.w3.org/2000/svg">
<path d="M-4.88162e-05 28.56V0.559996H21.96V6.68H7.83995V22.44H22.48V28.56H-4.88162e-05ZM7.27995 17.32V11.4H20.28V17.32H7.27995ZM26.875 28.56V0.559996H34.795V22.28H48.155V28.56H26.875ZM51.289 28.56V0.559996H59.209V28.56H51.289ZM70.8037 28.56V6.84H62.2037V0.559996H87.2837V6.84H78.7237V28.56H70.8037ZM90.2343 28.56V0.559996H112.194V6.68H98.0743V22.44H112.714V28.56H90.2343ZM97.5143 17.32V11.4H110.514V17.32H97.5143Z" fill="white"/>
<path d="M135.829 28.56V0.559996H143.749V28.56H135.829ZM117.109 28.56V0.559996H125.029V28.56H117.109ZM124.469 17.64V11.08H136.389V17.64H124.469ZM163.456 29.12C161.216 29.12 159.149 28.76 157.256 28.04C155.363 27.32 153.709 26.3067 152.296 25C150.909 23.6667 149.829 22.12 149.056 20.36C148.283 18.6 147.896 16.6667 147.896 14.56C147.896 12.4533 148.283 10.52 149.056 8.76C149.829 7 150.909 5.46666 152.296 4.16C153.709 2.82666 155.363 1.8 157.256 1.08C159.149 0.359996 161.216 -4.29153e-06 163.456 -4.29153e-06C165.723 -4.29153e-06 167.789 0.359996 169.656 1.08C171.549 1.8 173.189 2.82666 174.576 4.16C175.963 5.46666 177.043 7 177.816 8.76C178.616 10.52 179.016 12.4533 179.016 14.56C179.016 16.6667 178.616 18.6133 177.816 20.4C177.043 22.16 175.963 23.6933 174.576 25C173.189 26.3067 171.549 27.32 169.656 28.04C167.789 28.76 165.723 29.12 163.456 29.12ZM163.456 22.56C164.523 22.56 165.509 22.3733 166.416 22C167.349 21.6267 168.149 21.0933 168.816 20.4C169.509 19.68 170.043 18.8267 170.416 17.84C170.816 16.8533 171.016 15.76 171.016 14.56C171.016 13.3333 170.816 12.24 170.416 11.28C170.043 10.2933 169.509 9.45333 168.816 8.76C168.149 8.04 167.349 7.49333 166.416 7.12C165.509 6.74666 164.523 6.56 163.456 6.56C162.389 6.56 161.389 6.74666 160.456 7.12C159.549 7.49333 158.749 8.04 158.056 8.76C157.389 9.45333 156.856 10.2933 156.456 11.28C156.083 12.24 155.896 13.3333 155.896 14.56C155.896 15.76 156.083 16.8533 156.456 17.84C156.856 18.8267 157.389 19.68 158.056 20.4C158.749 21.0933 159.549 21.6267 160.456 22C161.389 22.3733 162.389 22.56 163.456 22.56ZM183.164 28.56V0.559996H189.684L201.284 19.6H197.844L209.124 0.559996H215.644L215.724 28.56H208.444L208.364 11.64H209.604L201.164 25.8H197.644L188.964 11.64H190.484V28.56H183.164ZM221.328 28.56V0.559996H243.288V6.68H229.168V22.44H243.808V28.56H221.328ZM228.608 17.32V11.4H241.608V17.32H228.608Z" fill="#DCB483"/>
</svg>
